<?xml version="1.0" encoding="UTF-8" standalone="no"?>
<!-- Created with Inkscape (http://www.inkscape.org/) -->
<svg
   xmlns:dc="http://purl.org/dc/elements/1.1/"
   xmlns:cc="http://web.resource.org/cc/"
   xmlns:rdf="http://www.w3.org/1999/02/22-rdf-syntax-ns#"
   xmlns:svg="http://www.w3.org/2000/svg"
   xmlns="http://www.w3.org/2000/svg"
   xmlns:sodipodi="http://sodipodi.sourceforge.net/DTD/sodipodi-0.dtd"
   xmlns:inkscape="http://www.inkscape.org/namespaces/inkscape"
   width="391"
   height="202.15865"
   id="svg2"
   sodipodi:version="0.32"
   inkscape:version="0.44"
   sodipodi:docbase="/home/hossein"
   sodipodi:docname="mysql.svg"
   version="1.0"
   inkscape:export-filename="/home/hossein/mysql.png"
   inkscape:export-xdpi="90"
   inkscape:export-ydpi="90">
  <defs
     id="defs4" />
  <sodipodi:namedview
     id="base"
     pagecolor="white"
     bordercolor="#666666"
     borderopacity="1.0"
     gridtolerance="10000"
     guidetolerance="10"
     objecttolerance="10"
     inkscape:pageopacity="0"
     inkscape:pageshadow="2"
     inkscape:zoom="0.9899495"
     inkscape:cx="321.9964"
     inkscape:cy="118.99361"
     inkscape:document-units="px"
     inkscape:current-layer="layer2"
     inkscape:window-width="1022"
     inkscape:window-height="691"
     inkscape:window-x="0"
     inkscape:window-y="26"
     width="400px"
     height="100px" />
  <metadata
     id="metadata7">
    <rdf:RDF>
      <cc:Work
         rdf:about="">
        <dc:format>image/svg+xml</dc:format>
        <dc:type
           rdf:resource="http://purl.org/dc/dcmitype/StillImage" />
      </cc:Work>
    </rdf:RDF>
  </metadata>
  <g
     inkscape:label="Layer 1"
     inkscape:groupmode="layer"
     id="layer1"
     style="display:inline"
     transform="translate(-1.12456,-14.78342)" />
  <g
     inkscape:groupmode="layer"
     id="layer2"
     inkscape:label="layer2"
     style="display:inline"
     transform="translate(-1.12456,-14.78342)">
    <g
       id="g10079"
       transform="translate(-157.5838,-296.9848)">
      <path
         style="fill:#9c9c9c;display:inline;fill-opacity:0"
         d="M 158.70836,412.76822 L 158.70836,311.76822 L 354.20836,311.76822 L 549.70836,311.76822 L 549.70836,412.76822 L 549.70836,513.76822 L 354.20836,513.76822 L 158.70836,513.76822 L 158.70836,412.76822 z "
         id="path1963" />
      <path
         style="fill:#e48c00;display:inline"
         d="M 444.43562,500.29552 L 439.66288,495.90222 L 423.43562,495.58522 C 409.59207,495.31479 406.63026,494.97443 403.27289,493.26822 C 396.05407,489.59962 395.28254,487.57469 394.85873,471.18465 C 394.36176,451.96507 395.09068,446.54131 398.72734,442.39939 C 402.74357,437.82515 407.19439,436.6651 423.11013,436.04436 C 444.98438,435.19122 455.17859,437.86272 458.26854,445.258 C 460.02556,449.46316 460.32316,482.01013 458.6452,486.45312 C 458.06046,488.00143 456.44698,490.17905 455.05968,491.29228 L 452.53731,493.31634 L 458.12284,498.59889 C 461.19487,501.5043 463.70836,504.08097 463.70836,504.32483 C 463.70836,504.5687 460.44586,504.75035 456.45836,504.72851 C 449.30374,504.68933 449.14557,504.63101 444.43562,500.29552 z M 424.51657,482.24504 L 419.82478,477.76822 L 427.36312,477.76822 C 434.73471,477.76822 435.00205,477.85676 439.44897,481.7711 C 446.31961,487.81888 446.70836,486.99042 446.70836,466.30076 C 446.70836,444.03746 447.79092,445.26822 428.20836,445.26822 C 408.6592,445.26822 409.70836,444.09685 409.70836,465.92321 C 409.70836,486.80241 409.69584,486.78022 421.45836,486.74504 L 429.20836,486.72186 L 424.51657,482.24504 z M 329.70836,491.33582 L 329.70836,486.76822 L 349.48585,486.76822 C 373.52483,486.76822 373.96204,486.60777 373.50558,477.95317 C 373.11269,470.50368 371.70787,469.80236 357.13986,469.78296 C 344.00584,469.76547 337.35352,468.09483 333.21426,463.77438 C 330.75443,461.20687 330.2464,459.76333 329.95059,454.50087 C 329.49674,446.42683 331.59218,442.17875 337.70836,438.77358 C 342.07969,436.33986 342.85886,436.25836 364.95836,435.92324 L 387.70836,435.57826 L 387.70836,440.17324 L 387.70836,444.76822 L 368.45836,444.8679 C 357.87086,444.92272 348.08336,445.27883 346.70836,445.65925 C 344.44004,446.28681 344.18115,446.91158 343.91476,452.40094 C 343.49945,460.95893 343.87512,461.15812 361.60741,461.78162 C 374.7685,462.24439 376.64943,462.54068 380.68104,464.78606 C 386.66501,468.1188 387.85355,470.67784 387.48225,479.42977 C 387.13974,487.5033 385.91493,489.5306 379.20836,493.12463 C 375.51508,495.10385 373.46388,495.29257 352.45836,495.58582 L 329.70836,495.90342 L 329.70836,491.33582 z M 480.29765,494.65001 C 474.6082,493.31546 470.13792,490.21087 468.57602,486.50938 C 467.54989,484.07759 467.20836,477.39987 467.20836,459.76822 L 467.20836,436.26822 L 473.70836,436.26822 L 480.20836,436.26822 L 480.45771,459.76822 C 480.69686,482.30634 480.79349,483.33985 482.8185,485.01822 C 484.67322,486.55546 487.34806,486.76822 504.81914,486.76822 L 524.70836,486.76822 L 524.70836,491.26822 L 524.70836,495.76822 L 504.45836,495.66777 C 493.32086,495.61252 482.44854,495.15453 480.29765,494.65001 z "
         id="path1961"
         sodipodi:nodetypes="cccsssssscccssccccssssccccccssssscccccssssssccccscccccscccccc" />
      <path
         id="path1895"
         d="M 539.54773,477.90312 C 534.29276,477.90312 530.01651,482.1794 530.01648,487.43437 C 530.01648,492.68934 534.29276,496.96563 539.54773,496.96562 C 544.8027,496.96562 549.07895,492.68934 549.07898,487.43437 C 549.07898,482.1794 544.8027,477.90312 539.54773,477.90312 z M 539.67273,480.34062 C 543.56629,480.34062 546.70398,483.50955 546.70398,487.40312 C 546.70401,491.29669 543.5663,494.46562 539.67273,494.46562 C 535.77915,494.46563 532.61023,491.29669 532.61023,487.40312 C 532.61024,483.50956 535.77916,480.34062 539.67273,480.34062 z "
         style="fill:#e48c00;fill-opacity:1;display:inline" />
      <path
         sodipodi:nodetypes="cssscccccccccssscsccccscc"
         id="text1905"
         d="M 539.18991,486.88338 C 539.71746,486.88338 540.09459,486.777 540.32132,486.56422 C 540.5524,486.35146 540.66794,486.00159 540.66794,485.51458 C 540.66794,485.03232 540.5524,484.68717 540.32132,484.47912 C 540.09459,484.27109 539.71746,484.16707 539.18991,484.16707 L 538.13043,484.16707 L 538.13043,486.88338 L 539.18991,486.88338 M 538.13043,488.7699 L 538.13043,492.77698 L 535.61252,492.77698 L 535.61252,482.18834 L 539.45804,482.18834 C 540.74424,482.18835 541.686,482.42239 542.28332,482.89047 C 542.885,483.35856 543.18583,484.09851 543.18584,485.11032 C 543.18583,485.81009 543.02887,486.38456 542.71496,486.83373 C 542.40539,487.28291 541.93669,487.61387 541.30886,487.82663 C 541.6533,487.91175 541.96068,488.1056 542.231,488.40819 C 542.50567,488.70607 542.79582,489.20733 543.01729,489.82513 L 544.00325,492.77698 L 541.74704,492.77698 L 540.55677,490.14578 C 540.31695,489.61624 540.0728,489.25454 539.82429,489.06068 C 539.58011,488.86683 539.25312,488.7699 538.84329,488.7699 L 538.13043,488.7699"
         style="font-size:13.16506004px;font-style:normal;font-weight:bold;fill:#e48c00;fill-opacity:1;stroke:none;stroke-width:1px;stroke-linecap:butt;stroke-linejoin:miter;stroke-opacity:1;display:inline;font-family:Sans" />
      <path
         style="fill:#015f8b;display:inline"
         d="M 259.70836,509.40072 L 259.70836,504.87457 L 282.29052,504.5714 C 303.52752,504.28628 304.95965,504.14914 306.3329,502.26912 C 307.13603,501.16962 307.66156,499.14462 307.50075,497.76912 L 307.20836,495.26822 L 288.20836,494.76822 C 270.49345,494.30204 268.95387,494.10999 265.44571,491.92884 C 259.5737,488.278 259.20836,486.99494 259.20836,470.02351 L 259.20836,454.77881 L 265.45836,454.77351 L 271.70836,454.76822 L 271.70836,469.11323 C 271.70836,488.18695 270.70373,487.26822 291.56091,487.26822 L 307.20836,487.26822 L 307.48254,470.51822 L 307.75672,453.76822 L 314.23254,453.76822 L 320.70836,453.76822 L 320.70681,477.51822 C 320.70498,505.44856 320.39103,506.67689 312.20836,510.76822 C 307.36514,513.18983 306.46368,513.27855 283.45836,513.59754 L 259.70836,513.92686 L 259.70836,509.40072 z M 199.12703,495.69315 C 197.43229,495.20106 195.35188,494.00415 194.50389,493.03333 C 193.65591,492.06252 188.4126,481.14322 182.85209,468.76822 L 172.74209,446.26822 L 172.72522,471.01822 L 172.70836,495.76822 L 166.20836,495.76822 L 159.70836,495.76822 L 159.70836,468.49073 C 159.70836,436.90167 159.53465,437.56888 168.22898,435.76394 C 174.61698,434.4378 179.21886,435.50252 182.4199,439.04724 C 183.523,440.26878 188.63946,451.05572 193.78981,463.01822 C 198.94016,474.98072 203.39129,484.76672 203.68122,484.76489 C 203.97115,484.76306 208.48336,475.0498 213.70836,463.17987 C 219.10629,450.91707 224.37753,440.39098 225.91606,438.80242 C 230.00201,434.58359 235.96262,433.95623 243.82864,436.91709 C 248.35345,438.62028 248.70836,440.97668 248.70836,469.31527 L 248.70836,495.76822 L 242.20836,495.76822 L 235.70836,495.76822 L 235.66416,471.01822 C 235.61257,442.12503 236.94264,442.04182 223.67645,471.76822 C 219.13559,481.94322 214.76388,491.27234 213.96154,492.4996 C 213.1592,493.72686 210.8615,495.18686 208.85555,495.74403 C 204.62422,496.91932 203.32657,496.91253 199.12703,495.69315 z M 542.20136,450.60522 C 540.00521,448.94954 535.05836,446.007 531.20836,444.06626 C 520.40734,438.62158 512.70836,431.47692 512.70836,426.89825 C 512.70836,425.4994 521.18406,422.9623 528.4723,422.17951 C 533.37384,421.65306 534.50719,421.23076 533.68316,420.23786 C 531.30982,417.37815 516.77177,408.81152 510.70836,406.69981 C 507.13336,405.45474 503.40026,403.7474 502.41258,402.90572 C 500.55394,401.32182 495.58684,391.44533 488.09126,374.42945 C 482.86794,362.57189 477.24007,354.48982 468.04569,345.64237 C 456.02976,334.07985 446.09276,328.75591 433.80984,327.29988 C 430.30203,326.88406 426.96697,325.6662 424.28731,323.82254 C 416.09898,318.18882 408.51884,316.21375 407.29779,319.39577 C 406.64582,321.09478 407.49194,322.68439 414.36956,332.68154 C 416.80908,336.22757 419.84378,342.67142 421.70428,348.25599 C 423.75054,354.39812 426.09097,359.23387 428.29309,361.86964 C 432.2743,366.63484 432.31103,366.94301 429.8001,374.51424 C 427.04082,382.83432 426.52411,388.04633 427.75678,395.12487 C 428.84843,401.39356 432.23405,408.79284 434.3248,409.47929 C 435.02045,409.70769 435.7067,407.49949 436.14556,403.62055 C 436.8474,397.41704 438.58188,392.82847 441.47071,389.53284 C 442.87231,387.93386 443.24753,388.38553 446.24427,395.27907 C 450.30806,404.62721 457.89119,416.89497 463.17792,422.67385 C 469.16111,429.21402 464.29082,425.96632 455.99886,417.88658 C 451.98578,413.97621 447.58458,408.51325 446.07197,405.56491 C 443.51227,400.57559 443.3126,400.4133 442.63115,402.76822 C 442.23326,404.14322 441.86286,406.66098 441.80804,408.36323 C 441.63895,413.61332 436.54081,416.35447 431.732,413.78087 C 429.06837,412.35534 425.72818,406.52219 424.12305,400.49295 C 422.15756,393.11013 422.3767,384.41112 424.75713,375.32292 C 426.78403,367.58444 426.78523,367.47836 424.86998,365.38458 C 422.13269,362.39216 419.16458,356.17732 416.13475,347.0942 C 414.56031,342.37419 411.87406,337.10378 409.36631,333.81457 C 407.07944,330.81507 404.66181,327.44007 403.9938,326.31457 C 402.1664,323.23569 402.44951,317.30946 404.54779,314.71819 C 407.97263,310.48869 419.60889,312.6697 428.15331,319.14262 C 430.10974,320.62474 433.18621,321.66039 436.70836,322.02256 C 439.73336,322.33361 444.12963,323.25401 446.47784,324.06791 C 456.51608,327.54717 470.89987,338.4275 480.32161,349.66837 C 486.62505,357.18885 488.86702,361.19453 500.13412,385.06696 L 506.64673,398.8657 L 513.38678,401.92179 C 525.49853,407.41352 542.53875,420.76534 541.48728,423.93988 C 541.2453,424.67047 539.05855,425.62752 536.62783,426.06667 C 525.71204,428.0388 521.67672,429.17517 522.00478,430.18462 C 522.19846,430.7806 525.66683,433.54071 529.71227,436.31819 C 536.35734,440.88051 547.65048,452.15943 546.61264,453.19728 C 546.38258,453.42733 544.3975,452.26091 542.20136,450.60522 z M 434.57212,342.01673 C 431.28209,336.72833 431.28701,336.76822 433.92503,336.76822 C 437.06264,336.76822 438.70836,338.53699 438.70836,341.9092 C 438.70836,346.11279 437.14565,346.15342 434.57212,342.01673 z "
         id="path1959" />
    </g>
  </g>
</svg>
